HIERARCHY
ROOT hip
{
  OFFSET 0 0 0
  CHANNELS 6 Xposition Yposition Zposition Zrotation Yrotation Xrotation
  JOINT abdomen
  {
    OFFSET 0 20.6881 -0.73152
    CHANNELS 3 Zrotation Xrotation Yrotation
    JOINT chest
    {
      OFFSET 0 11.7043 -0.48768
      CHANNELS 3 Zrotation Xrotation Yrotation
      JOINT neck
      {
        OFFSET 0 22.1894 -2.19456
        CHANNELS 3 Zrotation Xrotation Yrotation
        JOINT head
        {
          OFFSET -0.24384 7.07133 1.2192
          CHANNELS 3 Zrotation Xrotation Yrotation
          JOINT leftEye
          {
            OFFSET 4.14528 8.04674 8.04672
            CHANNELS 3 Zrotation Xrotation Yrotation
            End Site
            {
              OFFSET 1 0 0
            }
          }
          JOINT rightEye
          {
            OFFSET -3.6576 8.04674 8.04672
            CHANNELS 3 Zrotation Xrotation Yrotation
            End Site
            {
              OFFSET 1 0 0
            }
          }
        }
      }
      JOINT rCollar
      {
        OFFSET -2.68224 19.2634 -4.8768
        CHANNELS 3 Zrotation Xrotation Yrotation
        JOINT rShldr
        {
          OFFSET -8.77824 -1.95073 1.46304
          CHANNELS 3 Zrotation Xrotation Yrotation
          JOINT rForeArm
          {
            OFFSET -28.1742 -1.7115 0.48768
            CHANNELS 3 Zrotation Xrotation Yrotation
            JOINT rHand
            {
              OFFSET -22.5879 0.773209 7.07136
              CHANNELS 3 Zrotation Xrotation Yrotation
              JOINT rThumb1
              {
                OFFSET -1.2192 -0.487915 3.41376
                CHANNELS 3 Zrotation Xrotation Yrotation
                JOINT rThumb2
                {
                  OFFSET -3.37035 -0.52449 3.41376
                  CHANNELS 3 Zrotation Xrotation Yrotation
                  End Site
                  {
                    OFFSET -1.78271 -1.18214 1.43049
                  }
                }
              }
              JOINT rIndex1
              {
                OFFSET -7.75947 0.938293 5.60832
                CHANNELS 3 Zrotation Xrotation Yrotation
                JOINT rIndex2
                {
                  OFFSET -2.54057 -0.884171 1.56538
                  CHANNELS 3 Zrotation Xrotation Yrotation
                  End Site
                  {
                    OFFSET -1.62519 -0.234802 1.16502
                  }
                }
              }
              JOINT rMid1
              {
                OFFSET -8.24714 1.18213 3.41376
                CHANNELS 3 Zrotation Xrotation Yrotation
                JOINT rMid2
                {
                  OFFSET -3.10165 -0.590103 1.0647
                  CHANNELS 3 Zrotation Xrotation Yrotation
                  End Site
                  {
                    OFFSET -2.48547 -0.328903 0.83742
                  }
                }
              }
              JOINT rRing1
              {
                OFFSET -8.82822 0.546677 1.51678
                CHANNELS 3 Zrotation Xrotation Yrotation
                JOINT rRing2
                {
                  OFFSET -2.60934 -0.819778 -0.0198488
                  CHANNELS 3 Zrotation Xrotation Yrotation
                  End Site
                  {
                    OFFSET -2.33842 -0.294052 0.168128
                  }
                }
              }
              JOINT rPinky1
              {
                OFFSET -8.27202 -0.0477905 -0.4584
                CHANNELS 3 Zrotation Xrotation Yrotation
                JOINT rPinky2
                {
                  OFFSET -1.82734 -0.647385 -0.700984
                  CHANNELS 3 Zrotation Xrotation Yrotation
                  End Site
                  {
                    OFFSET -1.69225 -0.51767 -0.607171
                  }
                }
              }
            }
          }
        }
      }
      JOINT lCollar
      {
        OFFSET 2.68224 19.2634 -4.8768
        CHANNELS 3 Zrotation Xrotation Yrotation
        JOINT lShldr
        {
          OFFSET 8.77824 -1.95073 1.46304
          CHANNELS 3 Zrotation Xrotation Yrotation
          JOINT lForeArm
          {
            OFFSET 28.1742 -1.7115 0.48768
            CHANNELS 3 Zrotation Xrotation Yrotation
            JOINT lHand
            {
              OFFSET 22.5879 0.773209 7.07136
              CHANNELS 3 Zrotation Xrotation Yrotation
              JOINT lThumb1
              {
                OFFSET 1.2192 -0.487915 3.41376
                CHANNELS 3 Zrotation Xrotation Yrotation
                JOINT lThumb2
                {
                  OFFSET 3.37035 -0.52449 3.41376
                  CHANNELS 3 Zrotation Xrotation Yrotation
                  End Site
                  {
                    OFFSET 1.78271 -1.18214 1.43049
                  }
                }
              }
              JOINT lIndex1
              {
                OFFSET 7.75947 0.938293 5.60832
                CHANNELS 3 Zrotation Xrotation Yrotation
                JOINT lIndex2
                {
                  OFFSET 2.54057 -0.884171 1.56538
                  CHANNELS 3 Zrotation Xrotation Yrotation
                  End Site
                  {
                    OFFSET 1.62519 -0.234802 1.16502
                  }
                }
              }
              JOINT lMid1
              {
                OFFSET 8.24714 1.18213 3.41376
                CHANNELS 3 Zrotation Xrotation Yrotation
                JOINT lMid2
                {
                  OFFSET 3.10165 -0.590103 1.0647
                  CHANNELS 3 Zrotation Xrotation Yrotation
                  End Site
                  {
                    OFFSET 2.48547 -0.328903 0.83742
                  }
                }
              }
              JOINT lRing1
              {
                OFFSET 8.82822 0.546677 1.51678
                CHANNELS 3 Zrotation Xrotation Yrotation
                JOINT lRing2
                {
                  OFFSET 2.60934 -0.819778 -0.0198488
                  CHANNELS 3 Zrotation Xrotation Yrotation
                  End Site
                  {
                    OFFSET 2.33842 -0.294052 0.168128
                  }
                }
              }
              JOINT lPinky1
              {
                OFFSET 8.27202 -0.0477905 -0.4584
                CHANNELS 3 Zrotation Xrotation Yrotation
                JOINT lPinky2
                {
                  OFFSET 1.82734 -0.647385 -0.700984
                  CHANNELS 3 Zrotation Xrotation Yrotation
                  End Site
                  {
                    OFFSET 1.69225 -0.51767 -0.607171
                  }
                }
              }
            }
          }
        }
      }
    }
  }
  JOINT rButtock
  {
    OFFSET -8.77824 4.35084 1.2192
    CHANNELS 3 Zrotation Xrotation Yrotation
    JOINT rThigh
    {
      OFFSET 0 -1.70687 -2.19456
      CHANNELS 3 Zrotation Xrotation Yrotation
      JOINT rShin
      {
        OFFSET 0 -36.8199 0.73152
        CHANNELS 3 Zrotation Xrotation Yrotation
        JOINT rFoot
        {
          OFFSET 0.73152 -45.1104 -5.12064
          CHANNELS 3 Zrotation Xrotation Yrotation
          End Site
          {
            OFFSET -1.1221 -3.69964 12.103
          }
        }
      }
    }
  }
  JOINT lButtock
  {
    OFFSET 8.77824 4.35084 1.2192
    CHANNELS 3 Zrotation Xrotation Yrotation
    JOINT lThigh
    {
      OFFSET 0 -1.70687 -2.19456
      CHANNELS 3 Zrotation Xrotation Yrotation
      JOINT lShin
      {
        OFFSET 0 -36.8199 0.73152
        CHANNELS 3 Zrotation Xrotation Yrotation
        JOINT lFoot
        {
          OFFSET -0.73152 -45.1104 -5.12064
          CHANNELS 3 Zrotation Xrotation Yrotation
          End Site
          {
            OFFSET 1.1221 -3.69964 12.103
          }
        }
      }
    }
  }
}
MOTION
Frames:	6
Frame Time:	0.00833333
0.54003 82.4855 52.0732 0.0 0.0 0.0 -4.35896 0.0062923 -0.117456 -1.20159 0.032476 -0.207681 -6.02513e-15 7.95139e-16 -4.96961e-17 -1.75365e-14 9.54166e-15 -4.02228e-16 -0.0 0.0 0.0 -0.0 0.0 0.0 -2.68501e-15 -7.76503e-19 -4.96962e-17 -6.12651e-14 -4.41053e-16 0.0 -1.08755e-12 3.06725e-13 -9.54166e-15 -1.24225e-11 -4.23113e-13 -1.68569e-13 -2.93076e-11 -2.55512e-13 -3.56222e-13 -5.06189e-11 -4.42097e-13 -6.05101e-13 -2.93044e-11 -2.54444e-13 -3.62583e-13 7.73091 5.47488 0.417314 -2.9308e-11 -2.55538e-13 -3.53042e-13 2.90554 0.965183 0.102902 -2.93009e-11 -2.55339e-13 -3.54632e-13 10.2786 0.731801 0.0259123 -2.93162e-11 -2.54047e-13 -3.435e-13 2.22167 -0.733487 -0.20892 -2.78175e-15 3.88251e-19 -2.48481e-16 -6.44038e-14 -4.16205e-16 -2.18663e-15 -1.08124e-12 -3.41512e-13 -2.8625e-14 -1.23817e-11 2.25273e-13 -1.36764e-13 -2.9209e-11 -2.54246e-13 -3.59403e-13 -5.04345e-11 -4.38917e-13 -6.11462e-13 -2.92138e-11 -2.53649e-13 -3.49861e-13 -7.73091 5.47488 -0.417314 -2.92077e-11 -2.54246e-13 -3.56222e-13 -2.90554 0.965183 -0.102902 -2.92133e-11 -2.54146e-13 -3.57017e-13 -10.2786 0.731801 -0.0259123 -2.92009e-11 -2.51264e-13 -3.62583e-13 -2.22167 -0.733487 0.20892 -2.03217e-16 0.0 -3.88251e-19 -2.88797 -1.94435 0.0304125 -0.00797399 -2.07874 -0.0651049 -0.422484 4.00217 0.127149 2.03217e-16 0.0 3.88251e-19 -3.72529 -11.2507 0.48379 -0.0143138 14.7726 -0.388802 0.544738 -3.54244 0.0125178
-1.89329 82.2449 50.0695 -9.827 -0.4918 9.0222 -1.55807 -3.25796 1.15869 -1.37423 -2.23333 0.039873 -4.35432 4.06116 -3.60783 5.75365 -0.723417 -7.04358 -0.0 0.0 0.0 -0.0 0.0 0.0 -1.56566e-14 4.90621e-14 2.19308e-14 22.8045 -1.33977 -3.84629 -3.99555 -1.77301 6.28594 0.183726 9.53403 1.27393 4.48624e-10 -1.44136e-11 -6.68756e-10 7.56222e-10 -5.61544e-12 -1.16789e-09 4.48627e-10 -1.44134e-11 -6.68766e-10 7.73091 5.47488 0.417314 4.48624e-10 -1.44149e-11 -6.68755e-10 2.90554 0.965183 0.102902 4.48631e-10 -1.44143e-11 -6.68755e-10 10.2786 0.731801 0.0259123 4.48615e-10 -1.44126e-11 -6.68745e-10 2.22167 -0.733487 -0.20892 -1.57516e-14 4.90626e-14 2.17456e-14 -24.2126 -0.869968 3.46391 1.98467 -0.683854 -3.29614 -0.333652 12.8815 -1.64981 -1.02798e-09 -2.78298e-10 4.21478e-10 -1.75531e-09 -4.58461e-10 7.62869e-10 -1.02798e-09 -2.78298e-10 4.21484e-10 -7.73091 5.47488 -0.417314 -1.02797e-09 -2.78296e-10 4.21478e-10 -2.90554 0.965183 -0.102902 -1.02798e-09 -2.78298e-10 4.21477e-10 -10.2786 0.731801 -0.0259123 -1.02797e-09 -2.78296e-10 4.21471e-10 -2.22167 -0.733487 0.20892 -2.03217e-16 0.0 -3.88251e-19 -1.6315 -2.72966 6.99672 0.00754192 -1.77303 0.0642733 -1.02961 0.911174 -7.29123 2.03217e-16 0.0 3.88251e-19 -3.02224 -9.91987 -12.456 8.14365e-05 14.1263 -0.157467 1.97491 -11.8042 15.2878
-1.85728 82.2421 50.0848 -9.6723 -0.452 8.9486 1.57566 -6.68875 2.52292 -1.53839 -4.62842 0.302552 -8.41482 8.29971 -7.48134 11.6685 -1.45153 -14.4912 -0.0 0.0 0.0 -0.0 0.0 0.0 -2.88181e-14 1.06449e-13 4.56273e-14 46.7167 -2.73948 -7.91519 -7.80249 -3.57848 12.9555 -0.108936 19.6146 2.74597 1.00208e-09 -3.21998e-11 -1.44459e-09 1.69057e-09 -1.39604e-11 -2.52272e-09 1.00208e-09 -3.22006e-11 -1.4446e-09 7.73091 5.47488 0.417314 1.00208e-09 -3.22023e-11 -1.44459e-09 2.90554 0.965183 0.102902 1.00209e-09 -3.22014e-11 -1.44459e-09 10.2786 0.731801 0.0259123 1.00207e-09 -3.21991e-11 -1.44458e-09 2.22167 -0.733487 -0.20892 -2.89121e-14 1.06449e-13 4.54565e-14 -49.6934 -1.84321 7.12352 3.99263 -1.39704 -6.77431 0.206792 26.5123 -3.70335 -2.18277e-09 -6.028e-10 9.02011e-10 -3.72687e-09 -9.93461e-10 1.63307e-09 -2.18277e-09 -6.02802e-10 9.02014e-10 -7.73091 5.47488 -0.417314 -2.18277e-09 -6.02797e-10 9.02009e-10 -2.90554 0.965183 -0.102902 -2.18277e-09 -6.02801e-10 9.02008e-10 -10.2786 0.731801 -0.0259123 -2.18277e-09 -6.02799e-10 9.02e-10 -2.22167 -0.733487 0.20892 -2.03217e-16 0.0 -3.88251e-19 -0.0878554 -3.48259 14.3638 0.0224746 -1.44807 0.200988 -2.53063 -2.25768 -15.1329 2.03217e-16 0.0 3.88251e-19 -1.62135 -8.08509 -26.0067 0.0211368 13.4415 0.08535 8.23509 -18.2735 32.5775
-1.85037 82.2402 50.0836 -9.6463 -0.4286 8.9512 4.48493 -9.76779 3.75995 -1.66049 -6.76466 0.53864 -11.5098 11.9883 -11.04 16.7405 -2.03967 -21.1431 -0.0 0.0 0.0 -0.0 0.0 0.0 -4.15999e-14 1.47188e-13 6.58917e-14 67.8769 -3.94686 -11.5635 -10.8391 -5.06346 18.9254 -0.869036 28.5415 4.29132 1.40449e-09 -4.27299e-11 -2.00555e-09 2.3699e-09 -1.59621e-11 -3.50247e-09 1.40449e-09 -4.27314e-11 -2.00557e-09 7.73091 5.47488 0.417314 1.40449e-09 -4.27335e-11 -2.00556e-09 2.90554 0.965183 0.102902 1.40449e-09 -4.27323e-11 -2.00556e-09 10.2786 0.731801 0.0259123 1.40448e-09 -4.27296e-11 -2.00555e-09 2.22167 -0.733487 -0.20892 -4.16913e-14 1.47187e-13 6.57337e-14 -72.3239 -2.57177 10.4011 5.71914 -2.02442 -9.89397 1.74487 38.4976 -6.16952 -3.02551e-09 -8.34385e-10 1.26515e-09 -5.16507e-09 -1.37451e-09 2.28983e-09 -3.02551e-09 -8.34388e-10 1.26515e-09 -7.73091 5.47488 -0.417314 -3.0255e-09 -8.34381e-10 1.26515e-09 -2.90554 0.965183 -0.102902 -3.02551e-09 -8.34386e-10 1.26515e-09 -10.2786 0.731801 -0.0259123 -3.02551e-09 -8.34385e-10 1.26514e-09 -2.22167 -0.733487 0.20892 -2.03217e-16 0.0 -3.88251e-19 1.43786 -4.07401 20.9609 0.034431 -1.16158 0.322918 -4.59281 -4.86113 -22.2087 2.03217e-16 0.0 3.88251e-19 0.217373 -6.28633 -38.0185 0.0449305 12.8331 0.301312 17.0576 -20.4925 48.837
-1.86487 82.2441 50.0833 -9.7219 -0.4028 8.9505 6.52221 -11.9854 4.63303 -1.7192 -8.25411 0.704519 -13.293 14.4874 -13.6053 20.0665 -2.40201 -25.7939 -0.0 0.0 0.0 -0.0 0.0 0.0 -5.34322e-14 1.46306e-13 7.75757e-14 82.5358 -4.74248 -14.1366 -12.755 -5.99239 23.0811 -1.73909 34.6418 5.57244 1.42925e-09 -3.51197e-11 -2.02934e-09 2.41171e-09 -2.10553e-12 -3.54453e-09 1.42926e-09 -3.51217e-11 -2.02936e-09 7.73091 5.47488 0.417314 1.42925e-09 -3.51243e-11 -2.02935e-09 2.90554 0.965183 0.102902 1.42926e-09 -3.51229e-11 -2.02935e-09 10.2786 0.731801 0.0259123 1.42925e-09 -3.51201e-11 -2.02934e-09 2.22167 -0.733487 -0.20892 -5.35174e-14 1.46305e-13 7.74266e-14 -88.0858 -2.73121 12.712 6.90515 -2.46261 -12.1122 3.66625 46.5076 -8.51906 -3.08811e-09 -8.33677e-10 1.33481e-09 -5.26986e-09 -1.37067e-09 2.41297e-09 -3.08811e-09 -8.3368e-10 1.33481e-09 -7.73091 5.47488 -0.417314 -3.08811e-09 -8.33672e-10 1.33481e-09 -2.90554 0.965183 -0.102902 -3.08811e-09 -8.33678e-10 1.3348e-09 -10.2786 0.731801 -0.0259123 -3.08811e-09 -8.33677e-10 1.3348e-09 -2.22167 -0.733487 0.20892 -2.03217e-16 0.0 -3.88251e-19 2.54414 -4.45188 25.6089 0.0419073 -0.971275 0.407952 -6.42566 -6.48816 -27.25 2.03217e-16 0.0 3.88251e-19 1.77526 -5.05837 -46.3992 0.0642625 12.4159 0.452791 24.1009 -19.5164 59.9842
-1.87168 82.2367 50.0968 -9.6422 -0.3687 9.0581 7.17431 -13.0349 4.95618 -1.69951 -8.83301 0.768191 -13.7146 15.4519 -14.6388 21.0574 -2.53576 -27.6373 -0.0 0.0 0.0 -0.0 0.0 0.0 -6.12612e-14 7.96259e-14 7.67068e-14 88.2564 -4.99999 -15.1876 -13.4349 -6.3079 24.6498 -2.14296 36.8065 6.0933 8.18469e-10 4.36422e-11 -1.23589e-09 1.37827e-09 1.10419e-10 -2.15831e-09 8.18473e-10 4.36402e-11 -1.23591e-09 7.73091 5.47488 0.417314 8.1847e-10 4.36367e-11 -1.2359e-09 2.90554 0.965183 0.102902 8.18477e-10 4.3638e-11 -1.2359e-09 10.2786 0.731801 0.0259123 8.18462e-10 4.36406e-11 -1.23589e-09 2.22167 -0.733487 -0.20892 -6.13348e-14 7.96251e-14 7.65601e-14 -94.3586 -2.02135 13.6649 7.41315 -2.65713 -13.078 4.52979 49.0084 -9.46525 -1.92268e-09 -4.91289e-10 8.81086e-10 -3.27778e-09 -8.032e-10 1.59035e-09 -1.92268e-09 -4.91292e-10 8.81082e-10 -7.73091 5.47488 -0.417314 -1.92268e-09 -4.91284e-10 8.8108e-10 -2.90554 0.965183 -0.102902 -1.92268e-09 -4.91289e-10 8.8108e-10 -10.2786 0.731801 -0.0259123 -1.92268e-09 -4.91288e-10 8.81071e-10 -2.22167 -0.733487 0.20892 -2.03217e-16 0.0 -3.88251e-19 2.89802 -4.65705 27.5266 0.0443448 -0.91807 0.441238 -7.25888 -7.08521 -29.3654 2.03217e-16 0.0 3.88251e-19 2.32421 -4.67438 -49.7731 0.0724416 12.2689 0.515573 26.9178 -18.5275 64.2183
